<mxfile host="65bd71144e">
    <diagram id="azsK1cg6R6VSGmIQs4EG" name="Page-1">
        <mxGraphModel dx="1096" dy="836" grid="1" gridSize="10" guides="1" tooltips="1" connect="1" arrows="1" fold="1" page="1" pageScale="1" pageWidth="827" pageHeight="1169" math="0" shadow="0">
            <root>
                <mxCell id="0"/>
                <mxCell id="1" parent="0"/>
                <mxCell id="35" value="" style="rounded=0;whiteSpace=wrap;html=1;labelBackgroundColor=default;fillColor=none;" vertex="1" parent="1">
                    <mxGeometry x="630" y="40" width="180" height="450" as="geometry"/>
                </mxCell>
                <mxCell id="19" value="" style="rounded=0;whiteSpace=wrap;html=1;labelBackgroundColor=default;fillColor=none;" vertex="1" parent="1">
                    <mxGeometry x="380" y="20" width="200" height="490" as="geometry"/>
                </mxCell>
                <mxCell id="9" value="" style="endArrow=classic;html=1;" edge="1" parent="1" source="3" target="2">
                    <mxGeometry width="50" height="50" relative="1" as="geometry">
                        <mxPoint x="120" y="260" as="sourcePoint"/>
                        <mxPoint x="120" y="180" as="targetPoint"/>
                    </mxGeometry>
                </mxCell>
                <mxCell id="12" value="閲覧情報" style="edgeLabel;html=1;align=center;verticalAlign=middle;resizable=0;points=[];" vertex="1" connectable="0" parent="9">
                    <mxGeometry x="-0.1049" y="-1" relative="1" as="geometry">
                        <mxPoint x="19" y="24" as="offset"/>
                    </mxGeometry>
                </mxCell>
                <mxCell id="13" value="" style="group" vertex="1" connectable="0" parent="1">
                    <mxGeometry x="40" y="260" width="160" height="100" as="geometry"/>
                </mxCell>
                <mxCell id="6" value="" style="group" vertex="1" connectable="0" parent="13">
                    <mxGeometry x="30" y="20" width="130" height="80" as="geometry"/>
                </mxCell>
                <mxCell id="3" value="" style="image;html=1;image=img/lib/clip_art/computers/Laptop_128x128.png;fillColor=none;" vertex="1" parent="6">
                    <mxGeometry width="80" height="80" as="geometry"/>
                </mxCell>
                <mxCell id="5" value="" style="image;html=1;image=img/lib/clip_art/people/Worker_Man_128x128.png;fillColor=none;flipH=1;" vertex="1" parent="6">
                    <mxGeometry x="50" width="80" height="80" as="geometry"/>
                </mxCell>
                <mxCell id="10" value="ユーザー" style="text;html=1;strokeColor=none;fillColor=none;align=center;verticalAlign=middle;whiteSpace=wrap;rounded=0;" vertex="1" parent="13">
                    <mxGeometry width="60" height="30" as="geometry"/>
                </mxCell>
                <mxCell id="14" value="" style="group" vertex="1" connectable="0" parent="1">
                    <mxGeometry x="70" y="50" width="90" height="100" as="geometry"/>
                </mxCell>
                <mxCell id="2" value="" style="dashed=0;outlineConnect=0;html=1;align=center;labelPosition=center;verticalLabelPosition=bottom;verticalAlign=top;shape=mxgraph.webicons.chrome;gradientColor=#DFDEDE;fillColor=none;" vertex="1" parent="14">
                    <mxGeometry x="30" y="20" width="80" height="80" as="geometry"/>
                </mxCell>
                <mxCell id="11" value="ChromeExtension" style="text;html=1;strokeColor=none;fillColor=none;align=center;verticalAlign=middle;whiteSpace=wrap;rounded=0;" vertex="1" parent="14">
                    <mxGeometry width="60" height="30" as="geometry"/>
                </mxCell>
                <mxCell id="15" value="" style="endArrow=classic;html=1;" edge="1" parent="1" source="2" target="21">
                    <mxGeometry width="50" height="50" relative="1" as="geometry">
                        <mxPoint x="370" y="290" as="sourcePoint"/>
                        <mxPoint x="420" y="240" as="targetPoint"/>
                    </mxGeometry>
                </mxCell>
                <mxCell id="16" value="検索ワード&lt;br&gt;or&lt;br&gt;閲覧ページのTitle属性" style="edgeLabel;html=1;align=center;verticalAlign=middle;resizable=0;points=[];labelBackgroundColor=default;" vertex="1" connectable="0" parent="15">
                    <mxGeometry x="-0.0662" y="-1" relative="1" as="geometry">
                        <mxPoint x="-17" y="15" as="offset"/>
                    </mxGeometry>
                </mxCell>
                <mxCell id="18" value="" style="group" vertex="1" connectable="0" parent="1">
                    <mxGeometry x="430" y="40" width="80" height="110" as="geometry"/>
                </mxCell>
                <mxCell id="7" value="" style="image;html=1;image=img/lib/clip_art/computers/Server_Rack_128x128.png;fillColor=none;" vertex="1" parent="18">
                    <mxGeometry y="30" width="80" height="80" as="geometry"/>
                </mxCell>
                <mxCell id="17" value="Engine" style="text;html=1;strokeColor=none;fillColor=none;align=center;verticalAlign=middle;whiteSpace=wrap;rounded=0;labelBackgroundColor=default;" vertex="1" parent="18">
                    <mxGeometry width="60" height="30" as="geometry"/>
                </mxCell>
                <mxCell id="21" value="server.py&lt;br&gt;(FastAPI)" style="html=1;verticalLabelPosition=bottom;align=center;labelBackgroundColor=#ffffff;verticalAlign=top;strokeWidth=2;strokeColor=#0080F0;shadow=0;dashed=0;shape=mxgraph.ios7.icons.folder;fillColor=none;" vertex="1" parent="1">
                    <mxGeometry x="414" y="210" width="30" height="19.5" as="geometry"/>
                </mxCell>
                <mxCell id="27" value="ui.py&lt;br&gt;(flet)" style="html=1;verticalLabelPosition=bottom;align=center;labelBackgroundColor=#ffffff;verticalAlign=top;strokeWidth=2;strokeColor=#0080F0;shadow=0;dashed=0;shape=mxgraph.ios7.icons.window;fillColor=none;" vertex="1" parent="1">
                    <mxGeometry x="399" y="440" width="30" height="30" as="geometry"/>
                </mxCell>
                <mxCell id="28" value="" style="endArrow=classic;html=1;" edge="1" parent="1" source="5" target="27">
                    <mxGeometry width="50" height="50" relative="1" as="geometry">
                        <mxPoint x="220" y="350" as="sourcePoint"/>
                        <mxPoint x="270" y="300" as="targetPoint"/>
                    </mxGeometry>
                </mxCell>
                <mxCell id="29" value="操作" style="edgeLabel;html=1;align=center;verticalAlign=middle;resizable=0;points=[];" vertex="1" connectable="0" parent="28">
                    <mxGeometry x="-0.2816" relative="1" as="geometry">
                        <mxPoint as="offset"/>
                    </mxGeometry>
                </mxCell>
                <mxCell id="32" value="" style="endArrow=classic;html=1;exitX=0.945;exitY=0.402;exitDx=0;exitDy=0;exitPerimeter=0;" edge="1" parent="1" source="61" target="48">
                    <mxGeometry width="50" height="50" relative="1" as="geometry">
                        <mxPoint x="500" y="270" as="sourcePoint"/>
                        <mxPoint x="550" y="220" as="targetPoint"/>
                    </mxGeometry>
                </mxCell>
                <mxCell id="50" value="client uuid&lt;br&gt;検索ワード&lt;br&gt;閲覧ページ" style="edgeLabel;html=1;align=center;verticalAlign=middle;resizable=0;points=[];" vertex="1" connectable="0" parent="32">
                    <mxGeometry x="-0.2584" y="-1" relative="1" as="geometry">
                        <mxPoint x="41" y="-15" as="offset"/>
                    </mxGeometry>
                </mxCell>
                <mxCell id="34" value="" style="group" vertex="1" connectable="0" parent="1">
                    <mxGeometry x="675" y="60" width="90" height="105" as="geometry"/>
                </mxCell>
                <mxCell id="8" value="" style="image;html=1;image=img/lib/clip_art/computers/Mainframe_128x128.png;fillColor=none;" vertex="1" parent="34">
                    <mxGeometry x="10" y="25" width="80" height="80" as="geometry"/>
                </mxCell>
                <mxCell id="33" value="LLM" style="text;html=1;strokeColor=none;fillColor=none;align=center;verticalAlign=middle;whiteSpace=wrap;rounded=0;labelBackgroundColor=default;" vertex="1" parent="34">
                    <mxGeometry width="60" height="30" as="geometry"/>
                </mxCell>
                <mxCell id="45" value="" style="group" vertex="1" connectable="0" parent="1">
                    <mxGeometry x="665" y="300" width="120" height="170" as="geometry"/>
                </mxCell>
                <mxCell id="44" value="" style="rounded=0;whiteSpace=wrap;html=1;labelBackgroundColor=default;fillColor=none;" vertex="1" parent="45">
                    <mxGeometry width="120" height="170" as="geometry"/>
                </mxCell>
                <mxCell id="42" value="" style="group" vertex="1" connectable="0" parent="45">
                    <mxGeometry x="15" y="30" width="81.39999999999998" height="100" as="geometry"/>
                </mxCell>
                <mxCell id="37" value="user1" style="html=1;verticalLabelPosition=bottom;align=center;labelBackgroundColor=#ffffff;verticalAlign=top;strokeWidth=2;strokeColor=#0080F0;shadow=0;dashed=0;shape=mxgraph.ios7.icons.user;fillColor=none;" vertex="1" parent="42">
                    <mxGeometry width="30" height="30" as="geometry"/>
                </mxCell>
                <mxCell id="38" value="LLM1" style="html=1;verticalLabelPosition=bottom;align=center;labelBackgroundColor=#ffffff;verticalAlign=top;strokeWidth=2;strokeColor=#0080F0;shadow=0;dashed=0;shape=mxgraph.ios7.icons.lightbulb;fillColor=none;" vertex="1" parent="42">
                    <mxGeometry x="58.60000000000002" y="0.30000000000001137" width="22.8" height="29.7" as="geometry"/>
                </mxCell>
                <mxCell id="40" value="user2" style="html=1;verticalLabelPosition=bottom;align=center;labelBackgroundColor=#ffffff;verticalAlign=top;strokeWidth=2;strokeColor=#0080F0;shadow=0;dashed=0;shape=mxgraph.ios7.icons.user;fillColor=none;" vertex="1" parent="42">
                    <mxGeometry y="70" width="30" height="30" as="geometry"/>
                </mxCell>
                <mxCell id="41" value="LLM2" style="html=1;verticalLabelPosition=bottom;align=center;labelBackgroundColor=#ffffff;verticalAlign=top;strokeWidth=2;strokeColor=#0080F0;shadow=0;dashed=0;shape=mxgraph.ios7.icons.lightbulb;fillColor=none;" vertex="1" parent="42">
                    <mxGeometry x="58.60000000000002" y="70.30000000000001" width="22.8" height="29.7" as="geometry"/>
                </mxCell>
                <mxCell id="46" value="dict" style="text;html=1;strokeColor=none;fillColor=none;align=center;verticalAlign=middle;whiteSpace=wrap;rounded=0;labelBackgroundColor=default;" vertex="1" parent="45">
                    <mxGeometry x="-5" width="60" height="30" as="geometry"/>
                </mxCell>
                <mxCell id="48" value="server.py&lt;br&gt;(FastAPI)" style="html=1;verticalLabelPosition=bottom;align=center;labelBackgroundColor=#ffffff;verticalAlign=top;strokeWidth=2;strokeColor=#0080F0;shadow=0;dashed=0;shape=mxgraph.ios7.icons.folder;fillColor=none;" vertex="1" parent="1">
                    <mxGeometry x="665" y="170" width="30" height="19.5" as="geometry"/>
                </mxCell>
                <mxCell id="49" value="" style="endArrow=classic;html=1;" edge="1" parent="1" source="48" target="44">
                    <mxGeometry width="50" height="50" relative="1" as="geometry">
                        <mxPoint x="500" y="270" as="sourcePoint"/>
                        <mxPoint x="550" y="220" as="targetPoint"/>
                    </mxGeometry>
                </mxCell>
                <mxCell id="51" value="uuid&lt;br&gt;検索ワード&lt;br&gt;閲覧ページ" style="edgeLabel;html=1;align=center;verticalAlign=middle;resizable=0;points=[];" vertex="1" connectable="0" parent="49">
                    <mxGeometry x="0.2507" y="-1" relative="1" as="geometry">
                        <mxPoint x="-26" y="-1" as="offset"/>
                    </mxGeometry>
                </mxCell>
                <mxCell id="52" value="" style="endArrow=classic;html=1;entryX=0.978;entryY=1.222;entryDx=0;entryDy=0;entryPerimeter=0;" edge="1" parent="1" source="44" target="61">
                    <mxGeometry width="50" height="50" relative="1" as="geometry">
                        <mxPoint x="500" y="290" as="sourcePoint"/>
                        <mxPoint x="550" y="240" as="targetPoint"/>
                    </mxGeometry>
                </mxCell>
                <mxCell id="53" value="同じトピック?" style="edgeLabel;html=1;align=center;verticalAlign=middle;resizable=0;points=[];" vertex="1" connectable="0" parent="52">
                    <mxGeometry x="-0.3547" y="1" relative="1" as="geometry">
                        <mxPoint x="-23" y="-32" as="offset"/>
                    </mxGeometry>
                </mxCell>
                <mxCell id="54" value="judge.csv" style="html=1;verticalLabelPosition=bottom;align=center;labelBackgroundColor=#ffffff;verticalAlign=top;strokeWidth=2;strokeColor=#0080F0;shadow=0;dashed=0;shape=mxgraph.ios7.icons.data;fillColor=none;" vertex="1" parent="1">
                    <mxGeometry x="503" y="340" width="24" height="29.099999999999998" as="geometry"/>
                </mxCell>
                <mxCell id="55" value="settings.yaml" style="html=1;verticalLabelPosition=bottom;align=center;labelBackgroundColor=#ffffff;verticalAlign=top;strokeWidth=2;strokeColor=#0080F0;shadow=0;dashed=0;shape=mxgraph.ios7.icons.data;fillColor=none;" vertex="1" parent="1">
                    <mxGeometry x="510" y="440.9" width="24" height="29.099999999999998" as="geometry"/>
                </mxCell>
                <mxCell id="56" value="" style="endArrow=classic;html=1;entryX=0.014;entryY=0.427;entryDx=0;entryDy=0;entryPerimeter=0;" edge="1" parent="1" source="27" target="55">
                    <mxGeometry width="50" height="50" relative="1" as="geometry">
                        <mxPoint x="440" y="480" as="sourcePoint"/>
                        <mxPoint x="500" y="455" as="targetPoint"/>
                    </mxGeometry>
                </mxCell>
                <mxCell id="57" value="読み書き" style="edgeLabel;html=1;align=center;verticalAlign=middle;resizable=0;points=[];" vertex="1" connectable="0" parent="56">
                    <mxGeometry x="-0.5933" y="-1" relative="1" as="geometry">
                        <mxPoint x="14" y="14" as="offset"/>
                    </mxGeometry>
                </mxCell>
                <mxCell id="59" value="" style="endArrow=classic;html=1;entryX=0.348;entryY=-0.126;entryDx=0;entryDy=0;entryPerimeter=0;" edge="1" parent="1" source="61" target="54">
                    <mxGeometry width="50" height="50" relative="1" as="geometry">
                        <mxPoint x="500" y="290" as="sourcePoint"/>
                        <mxPoint x="550" y="240" as="targetPoint"/>
                    </mxGeometry>
                </mxCell>
                <mxCell id="60" value="ログ保存" style="edgeLabel;html=1;align=center;verticalAlign=middle;resizable=0;points=[];" vertex="1" connectable="0" parent="59">
                    <mxGeometry x="0.5445" relative="1" as="geometry">
                        <mxPoint x="27" as="offset"/>
                    </mxGeometry>
                </mxCell>
                <mxCell id="61" value="judge.py" style="html=1;verticalLabelPosition=bottom;align=center;labelBackgroundColor=#ffffff;verticalAlign=top;strokeWidth=2;strokeColor=#0080F0;shadow=0;dashed=0;shape=mxgraph.ios7.icons.folder;fillColor=none;" vertex="1" parent="1">
                    <mxGeometry x="504" y="220" width="30" height="19.5" as="geometry"/>
                </mxCell>
                <mxCell id="62" value="" style="endArrow=classic;html=1;exitX=1.045;exitY=0.633;exitDx=0;exitDy=0;exitPerimeter=0;entryX=-0.089;entryY=0.402;entryDx=0;entryDy=0;entryPerimeter=0;" edge="1" parent="1" source="21" target="61">
                    <mxGeometry width="50" height="50" relative="1" as="geometry">
                        <mxPoint x="500" y="290" as="sourcePoint"/>
                        <mxPoint x="550" y="240" as="targetPoint"/>
                    </mxGeometry>
                </mxCell>
                <mxCell id="63" value="転送" style="edgeLabel;html=1;align=center;verticalAlign=middle;resizable=0;points=[];" vertex="1" connectable="0" parent="62">
                    <mxGeometry x="-0.2237" y="3" relative="1" as="geometry">
                        <mxPoint x="4" y="-6" as="offset"/>
                    </mxGeometry>
                </mxCell>
                <mxCell id="64" value="notify.py" style="html=1;verticalLabelPosition=bottom;align=center;labelBackgroundColor=#ffffff;verticalAlign=top;strokeWidth=2;strokeColor=#0080F0;shadow=0;dashed=0;shape=mxgraph.ios7.icons.folder;fillColor=none;" vertex="1" parent="1">
                    <mxGeometry x="410" y="320.5" width="30" height="19.5" as="geometry"/>
                </mxCell>
                <mxCell id="65" value="" style="endArrow=classic;html=1;exitX=0.098;exitY=0.049;exitDx=0;exitDy=0;exitPerimeter=0;entryX=1.011;entryY=1.12;entryDx=0;entryDy=0;entryPerimeter=0;" edge="1" parent="1" source="55" target="64">
                    <mxGeometry width="50" height="50" relative="1" as="geometry">
                        <mxPoint x="500" y="290" as="sourcePoint"/>
                        <mxPoint x="550" y="240" as="targetPoint"/>
                    </mxGeometry>
                </mxCell>
                <mxCell id="66" value="参照" style="edgeLabel;html=1;align=center;verticalAlign=middle;resizable=0;points=[];" vertex="1" connectable="0" parent="65">
                    <mxGeometry x="0.3414" y="-2" relative="1" as="geometry">
                        <mxPoint x="-21" y="-5" as="offset"/>
                    </mxGeometry>
                </mxCell>
                <mxCell id="67" value="" style="endArrow=classic;html=1;exitX=-0.069;exitY=0.39;exitDx=0;exitDy=0;exitPerimeter=0;entryX=1.011;entryY=0.556;entryDx=0;entryDy=0;entryPerimeter=0;" edge="1" parent="1" source="54" target="64">
                    <mxGeometry width="50" height="50" relative="1" as="geometry">
                        <mxPoint x="500" y="290" as="sourcePoint"/>
                        <mxPoint x="550" y="240" as="targetPoint"/>
                    </mxGeometry>
                </mxCell>
                <mxCell id="68" value="参照" style="edgeLabel;html=1;align=center;verticalAlign=middle;resizable=0;points=[];" vertex="1" connectable="0" parent="67">
                    <mxGeometry x="0.4083" y="-3" relative="1" as="geometry">
                        <mxPoint x="10" y="-4" as="offset"/>
                    </mxGeometry>
                </mxCell>
                <mxCell id="69" value="" style="endArrow=classic;html=1;entryX=-0.027;entryY=0.905;entryDx=0;entryDy=0;entryPerimeter=0;" edge="1" parent="1" source="27" target="54">
                    <mxGeometry width="50" height="50" relative="1" as="geometry">
                        <mxPoint x="500" y="290" as="sourcePoint"/>
                        <mxPoint x="550" y="240" as="targetPoint"/>
                    </mxGeometry>
                </mxCell>
                <mxCell id="71" value="起動時リフレッシュ" style="edgeLabel;html=1;align=center;verticalAlign=middle;resizable=0;points=[];" vertex="1" connectable="0" parent="69">
                    <mxGeometry x="-0.5776" relative="1" as="geometry">
                        <mxPoint as="offset"/>
                    </mxGeometry>
                </mxCell>
                <mxCell id="72" value="" style="endArrow=classic;html=1;exitX=-0.122;exitY=0.248;exitDx=0;exitDy=0;exitPerimeter=0;" edge="1" parent="1" source="64" target="5">
                    <mxGeometry width="50" height="50" relative="1" as="geometry">
                        <mxPoint x="500" y="290" as="sourcePoint"/>
                        <mxPoint x="550" y="240" as="targetPoint"/>
                    </mxGeometry>
                </mxCell>
                <mxCell id="73" value="通知" style="edgeLabel;html=1;align=center;verticalAlign=middle;resizable=0;points=[];" vertex="1" connectable="0" parent="72">
                    <mxGeometry x="0.3664" y="1" relative="1" as="geometry">
                        <mxPoint as="offset"/>
                    </mxGeometry>
                </mxCell>
                <mxCell id="74" value="" style="shape=flexArrow;endArrow=classic;html=1;exitX=0.938;exitY=1.008;exitDx=0;exitDy=0;exitPerimeter=0;" edge="1" parent="1" source="54" target="75">
                    <mxGeometry width="50" height="50" relative="1" as="geometry">
                        <mxPoint x="490" y="430" as="sourcePoint"/>
                        <mxPoint x="680" y="620" as="targetPoint"/>
                    </mxGeometry>
                </mxCell>
                <mxCell id="75" value="judge.csv" style="swimlane;fontStyle=0;childLayout=stackLayout;horizontal=1;startSize=30;horizontalStack=0;resizeParent=1;resizeParentMax=0;resizeLast=0;collapsible=1;marginBottom=0;whiteSpace=wrap;html=1;labelBackgroundColor=default;fillColor=none;" vertex="1" parent="1">
                    <mxGeometry x="580" y="610" width="270" height="150" as="geometry"/>
                </mxCell>
                <mxCell id="76" value="timestamp(int): unix時間のタイムスタンプ" style="text;strokeColor=none;fillColor=none;align=left;verticalAlign=middle;spacingLeft=4;spacingRight=4;overflow=hidden;points=[[0,0.5],[1,0.5]];portConstraint=eastwest;rotatable=0;whiteSpace=wrap;html=1;labelBackgroundColor=default;" vertex="1" parent="75">
                    <mxGeometry y="30" width="270" height="30" as="geometry"/>
                </mxCell>
                <mxCell id="77" value="search_word(str): 検索ワード" style="text;strokeColor=none;fillColor=none;align=left;verticalAlign=middle;spacingLeft=4;spacingRight=4;overflow=hidden;points=[[0,0.5],[1,0.5]];portConstraint=eastwest;rotatable=0;whiteSpace=wrap;html=1;labelBackgroundColor=default;" vertex="1" parent="75">
                    <mxGeometry y="60" width="270" height="30" as="geometry"/>
                </mxCell>
                <mxCell id="78" value="content(str): 閲覧ページのtitle" style="text;strokeColor=none;fillColor=none;align=left;verticalAlign=middle;spacingLeft=4;spacingRight=4;overflow=hidden;points=[[0,0.5],[1,0.5]];portConstraint=eastwest;rotatable=0;whiteSpace=wrap;html=1;labelBackgroundColor=default;" vertex="1" parent="75">
                    <mxGeometry y="90" width="270" height="30" as="geometry"/>
                </mxCell>
                <mxCell id="79" value="is_same_topic(bool): 同じトピックならTrue" style="text;strokeColor=none;fillColor=none;align=left;verticalAlign=middle;spacingLeft=4;spacingRight=4;overflow=hidden;points=[[0,0.5],[1,0.5]];portConstraint=eastwest;rotatable=0;whiteSpace=wrap;html=1;labelBackgroundColor=default;" vertex="1" parent="75">
                    <mxGeometry y="120" width="270" height="30" as="geometry"/>
                </mxCell>
                <mxCell id="80" value="settings.yaml" style="swimlane;fontStyle=0;childLayout=stackLayout;horizontal=1;startSize=30;horizontalStack=0;resizeParent=1;resizeParentMax=0;resizeLast=0;collapsible=1;marginBottom=0;whiteSpace=wrap;html=1;labelBackgroundColor=default;fillColor=none;" vertex="1" parent="1">
                    <mxGeometry x="230" y="610" width="250" height="90" as="geometry"/>
                </mxCell>
                <mxCell id="81" value="is_running(bool): 起動してるか?" style="text;strokeColor=none;fillColor=none;align=left;verticalAlign=middle;spacingLeft=4;spacingRight=4;overflow=hidden;points=[[0,0.5],[1,0.5]];portConstraint=eastwest;rotatable=0;whiteSpace=wrap;html=1;labelBackgroundColor=default;" vertex="1" parent="80">
                    <mxGeometry y="30" width="250" height="30" as="geometry"/>
                </mxCell>
                <mxCell id="82" value="is_play_sound(bool): 音を鳴らすか?" style="text;strokeColor=none;fillColor=none;align=left;verticalAlign=middle;spacingLeft=4;spacingRight=4;overflow=hidden;points=[[0,0.5],[1,0.5]];portConstraint=eastwest;rotatable=0;whiteSpace=wrap;html=1;labelBackgroundColor=default;" vertex="1" parent="80">
                    <mxGeometry y="60" width="250" height="30" as="geometry"/>
                </mxCell>
                <mxCell id="84" value="" style="shape=flexArrow;endArrow=classic;html=1;exitX=0.535;exitY=1.08;exitDx=0;exitDy=0;exitPerimeter=0;entryX=0.5;entryY=0;entryDx=0;entryDy=0;" edge="1" parent="1" source="55" target="80">
                    <mxGeometry width="50" height="50" relative="1" as="geometry">
                        <mxPoint x="600" y="520" as="sourcePoint"/>
                        <mxPoint x="650" y="470" as="targetPoint"/>
                    </mxGeometry>
                </mxCell>
            </root>
        </mxGraphModel>
    </diagram>
</mxfile>
